<svg width="122" height="33" viewBox="0 0 122 33" fill="none" xmlns="http://www.w3.org/2000/svg">
<g clip-path="url(#clip0_1_9)">
<path fill-rule="evenodd" clip-rule="evenodd" d="M4.4 0.619C2 0.825 0 2.99 0 5.362V27.638C0 30.009 2 32.175 4.4 32.381C8.2 32.794 12.1 33 16 33C19.9 33 23.8 32.794 27.6 32.381C30 32.175 32 30.009 32 27.637V5.363C32 2.991 30 0.825 27.7 0.62C23.8179 0.208147 19.9169 0.00119306 16.013 0C12.125 0 8.25 0.206 4.4 0.619Z" fill="url(#paint0_linear_1_9)"/>
<path fill-rule="evenodd" clip-rule="evenodd" d="M22.383 8.327C22.2002 8.25031 21.9985 8.23028 21.8042 8.26951C21.6099 8.30873 21.4318 8.4054 21.293 8.547L16 13.912L10.707 8.547C10.5682 8.4054 10.3901 8.30873 10.1958 8.26951C10.0015 8.23028 9.79983 8.25031 9.617 8.327C9.43336 8.40513 9.27686 8.53572 9.16711 8.7024C9.05735 8.86907 8.99922 9.06443 9 9.264V21.427C9 21.987 9.448 22.441 10 22.441C10.552 22.441 11 21.987 11 21.427V11.711L15.293 16.062C15.3852 16.156 15.4952 16.2307 15.6166 16.2817C15.738 16.3327 15.8683 16.359 16 16.359C16.1317 16.359 16.262 16.3327 16.3834 16.2817C16.5048 16.2307 16.6148 16.156 16.707 16.062L21 11.711V21.427C21 21.987 21.448 22.441 22 22.441C22.552 22.441 23 21.987 23 21.427V9.264C23 8.854 22.756 8.484 22.383 8.327Z" fill="#BE5B04"/>
<path fill-rule="evenodd" clip-rule="evenodd" d="M17.9286 17.8281L16.0026 19.8151L14.0766 17.8281C13.9868 17.7343 13.879 17.6596 13.7595 17.6086C13.6401 17.5576 13.5115 17.5312 13.3816 17.5312C13.2518 17.5312 13.1232 17.5576 13.0038 17.6086C12.8843 17.6596 12.7764 17.7343 12.6866 17.8281C12.5017 18.021 12.3984 18.2779 12.3984 18.5451C12.3984 18.8123 12.5017 19.0692 12.6866 19.2621L15.0196 21.6671V24.9641C15.0196 25.5241 15.4596 25.9781 16.0026 25.9781C16.5456 25.9781 16.9856 25.5241 16.9856 24.9641V21.6681L19.3186 19.2621C19.5036 19.0692 19.6068 18.8123 19.6068 18.5451C19.6068 18.2779 19.5036 18.021 19.3186 17.8281C19.2288 17.7343 19.121 17.6596 19.0015 17.6086C18.8821 17.5576 18.7535 17.5313 18.6236 17.5312C18.4938 17.5313 18.3652 17.5576 18.2458 17.6086C18.1263 17.6596 18.0184 17.7343 17.9286 17.8281Z" fill="#BE5B04"/>
</g>
<g clip-path="url(#clip1_1_9)">
<path fill-rule="evenodd" clip-rule="evenodd" d="M88.965 20.362C87.288 20.362 85.925 18.956 85.925 17.226C85.925 15.498 87.288 14.091 88.965 14.091C90.642 14.091 92.005 15.498 92.005 17.226C92.005 18.956 90.642 20.362 88.965 20.362ZM88.965 12C86.17 12 83.897 14.345 83.897 17.226C83.897 20.108 86.17 22.453 88.965 22.453C91.759 22.453 94.033 20.108 94.033 17.227C94.033 14.344 91.761 12 88.965 12ZM103.831 20.362C102.155 20.362 100.791 18.956 100.791 17.226C100.791 15.498 102.155 14.091 103.831 14.091C105.508 14.091 106.872 15.498 106.872 17.226C106.872 18.956 105.507 20.362 103.831 20.362ZM103.831 12C101.037 12 98.763 14.345 98.763 17.226C98.763 20.108 101.037 22.453 103.831 22.453C106.626 22.453 108.9 20.108 108.9 17.227C108.9 14.344 106.626 12 103.831 12ZM51.511 12.463C51.3257 12.3837 51.1206 12.3629 50.9232 12.4033C50.7257 12.4436 50.5453 12.5433 50.406 12.689L47.068 16.131L43.731 12.69C43.5918 12.5443 43.4114 12.4445 43.214 12.4039C43.0165 12.3634 42.8114 12.384 42.626 12.463C42.4388 12.5451 42.2797 12.6802 42.1685 12.8517C42.0572 13.0232 41.9987 13.2236 42 13.428V21.094C42 21.671 42.454 22.139 43.014 22.139C43.574 22.139 44.028 21.671 44.028 21.094V15.952L46.351 18.349C46.4436 18.4457 46.5548 18.5227 46.678 18.5752C46.8011 18.6278 46.9336 18.6549 47.0675 18.6549C47.2014 18.6549 47.3339 18.6278 47.4571 18.5752C47.5802 18.5227 47.6914 18.4457 47.784 18.349L50.108 15.952V21.094C50.108 21.671 50.562 22.139 51.122 22.139C51.682 22.139 52.136 21.671 52.136 21.094V13.428C52.136 13.005 51.89 12.624 51.511 12.463ZM76.295 20.013H73.423V18.271H76.295C76.745 18.271 77.14 18.678 77.14 19.142C77.14 19.606 76.745 20.013 76.295 20.013ZM73.423 14.438H75.281C75.731 14.438 76.126 14.845 76.126 15.309C76.126 15.773 75.731 16.18 75.281 16.18H73.423V14.438ZM77.839 16.649C78.039 16.246 78.153 15.792 78.153 15.309C78.153 13.676 76.865 12.348 75.281 12.348H72.409C71.849 12.348 71.396 12.816 71.396 13.393V21.058C71.396 21.636 71.849 22.104 72.409 22.104H76.295C77.878 22.104 79.167 20.775 79.167 19.142C79.167 18.095 78.637 17.176 77.839 16.649ZM64.259 13.002L61.259 16.095L58.259 13.002C58.1664 12.9053 58.0552 12.8283 57.9321 12.7758C57.8089 12.7232 57.6764 12.6961 57.5425 12.6961C57.4086 12.6961 57.2761 12.7232 57.153 12.7758C57.0298 12.8283 56.9186 12.9053 56.826 13.002C56.6355 13.2008 56.5291 13.4656 56.5291 13.741C56.5291 14.0164 56.6355 14.2812 56.826 14.48L60.246 18.006V21.058C60.246 21.635 60.699 22.103 61.259 22.103C61.819 22.103 62.273 21.635 62.273 21.058V18.006L65.693 14.48C65.8836 14.2812 65.99 14.0164 65.99 13.741C65.99 13.4656 65.8836 13.2008 65.693 13.002C65.6005 12.905 65.4892 12.8278 65.366 12.775C65.2427 12.7223 65.1101 12.6951 64.976 12.6951C64.842 12.6951 64.7093 12.7223 64.5861 12.775C64.4628 12.8278 64.3516 12.905 64.259 13.002ZM118.104 17.226L121.104 14.132C121.295 13.9332 121.401 13.6684 121.401 13.393C121.401 13.1176 121.295 12.8528 121.104 12.654C121.011 12.5572 120.9 12.4801 120.777 12.4274C120.654 12.3748 120.521 12.3476 120.388 12.3476C120.254 12.3476 120.121 12.3748 119.998 12.4274C119.875 12.4801 119.764 12.5572 119.671 12.654L115.995 16.444V13.394C115.995 12.817 115.541 12.349 114.982 12.349C114.422 12.349 113.968 12.817 113.968 13.394V21.059C113.968 21.637 114.422 22.105 114.982 22.105C115.542 22.105 115.995 21.637 115.995 21.059V18.007L119.671 21.797C119.764 21.8935 119.875 21.9702 119.998 22.0226C120.121 22.075 120.254 22.102 120.388 22.102C120.521 22.102 120.654 22.075 120.777 22.0226C120.9 21.9702 121.011 21.8935 121.104 21.797C121.295 21.5982 121.401 21.3334 121.401 21.058C121.401 20.7826 121.295 20.5178 121.104 20.319L118.104 17.226Z" fill="#383434"/>
</g>
<defs>
<linearGradient id="paint0_linear_1_9" x1="0" y1="0" x2="0" y2="33" gradientUnits="userSpaceOnUse">
<stop stop-color="#F9D860"/>
<stop offset="1" stop-color="#FB9E49"/>
</linearGradient>
<clipPath id="clip0_1_9">
<rect width="32" height="33" fill="white"/>
</clipPath>
<clipPath id="clip1_1_9">
<rect width="79.401" height="12.453" fill="white" transform="translate(42 11)"/>
</clipPath>
</defs>
</svg>
