<svg width="4" height="8" viewBox="0 0 4 8" fill="none" xmlns="http://www.w3.org/2000/svg">
<path id="Vector" d="M3.34325 4.77175L4 3.99065L0.851994 0.158708C0.759156 0.0538189 0.636662 -0.00302284 0.510248 0.000124024C0.383833 0.00327088 0.263337 0.0661615 0.174071 0.175584C0.0848062 0.285006 0.0337204 0.432444 0.0315458 0.586923C0.0293712 0.741402 0.0762769 0.890899 0.16241 1.00401L2.59785 3.98062L0.135045 6.99066C0.0470456 7.10342 -0.00140561 7.25373 3.10607e-05 7.40953C0.00146773 7.56533 0.0526783 7.71428 0.142735 7.82458C0.232792 7.93489 0.354562 7.99782 0.482061 7.99994C0.60956 8.00207 0.73269 7.94322 0.825176 7.83596L3.34325 4.77175Z" fill="#B34D00"/>
</svg>
