<svg width="23" height="21" viewBox="0 0 23 21" fill="none" xmlns="http://www.w3.org/2000/svg">
<path id="Icon" d="M11.375 19.7332L11.2749 19.5831C10.5803 18.5411 10.233 18.0201 9.7741 17.643C9.36786 17.3091 8.89976 17.0586 8.39661 16.9058C7.82825 16.7332 7.20211 16.7332 5.94982 16.7332H4.575C3.45489 16.7332 2.89484 16.7332 2.46702 16.5152C2.09069 16.3234 1.78473 16.0175 1.59299 15.6411C1.375 15.2133 1.375 14.6533 1.375 13.5332V4.93315C1.375 3.81305 1.375 3.253 1.59299 2.82517C1.78473 2.44885 2.09069 2.14289 2.46702 1.95114C2.89484 1.73315 3.45489 1.73315 4.575 1.73315H4.975C7.21521 1.73315 8.33531 1.73315 9.19096 2.16913C9.94361 2.55262 10.5555 3.16454 10.939 3.91719C11.375 4.77284 11.375 5.89294 11.375 8.13315M11.375 19.7332V8.13315M11.375 19.7332L11.4751 19.5831C12.1697 18.5411 12.517 18.0201 12.9759 17.643C13.3821 17.3091 13.8502 17.0586 14.3534 16.9058C14.9217 16.7332 15.5479 16.7332 16.8002 16.7332H18.175C19.2951 16.7332 19.8552 16.7332 20.283 16.5152C20.6593 16.3234 20.9653 16.0175 21.157 15.6411C21.375 15.2133 21.375 14.6533 21.375 13.5332V4.93315C21.375 3.81305 21.375 3.253 21.157 2.82517C20.9653 2.44885 20.6593 2.14289 20.283 1.95114C19.8552 1.73315 19.2951 1.73315 18.175 1.73315H17.775C15.5348 1.73315 14.4147 1.73315 13.559 2.16913C12.8064 2.55262 12.1945 3.16454 11.811 3.91719C11.375 4.77284 11.375 5.89294 11.375 8.13315" stroke="#D2CECE" stroke-width="1.5" stroke-linecap="round" stroke-linejoin="round"/>
</svg>
