<svg width="10" height="8" viewBox="0 0 10 8" fill="none" xmlns="http://www.w3.org/2000/svg">
<path fill-rule="evenodd" clip-rule="evenodd" d="M1.3638 3.78562L1.81523 3.65852C1.92156 3.6285 2.03353 3.62317 2.14231 3.64296C2.25109 3.66274 2.35371 3.7071 2.44208 3.77253C2.53045 3.83796 2.60216 3.92267 2.65154 4.01999C2.70092 4.11731 2.72664 4.22458 2.72665 4.33334V7.29736C2.72672 7.40304 2.70253 7.50737 2.65587 7.60258C2.60921 7.69779 2.5413 7.78142 2.45719 7.84723C2.37308 7.91304 2.27494 7.95934 2.1701 7.98268C2.06525 8.00602 1.9564 8.00579 1.85165 7.98201L1.36308 7.87036C0.975578 7.78216 0.629868 7.56757 0.382263 7.26154C0.134659 6.95552 -0.000250028 6.57609 -0.000488281 6.18506L-0.000488281 5.56501C-0.000488281 4.73921 0.55594 4.01313 1.3638 3.78562Z" fill="#7C7F84"/>
<path d="M1.94798 4.18094V5.36206H0.908691V4.18094C0.908691 1.30189 2.84655 0 4.99226 0C7.13798 0 9.09012 1.39599 9.09012 4.18094V5.36206H8.06155V4.18094C8.06155 2.21476 6.77512 1.03014 4.99226 1.03014C3.20941 1.03014 1.94798 2.12769 1.94798 4.18094Z" fill="#7C7F84"/>
<path fill-rule="evenodd" clip-rule="evenodd" d="M8.16175 3.64372L8.63603 3.76169C9.02575 3.85844 9.37149 4.08027 9.61848 4.39202C9.86547 4.70378 9.9996 5.08764 9.9996 5.4828V6.09231C9.9996 6.91179 9.44103 7.63015 8.63532 7.84432L8.17318 7.96721C8.0673 7.99535 7.95625 7.99915 7.84864 7.9783C7.74103 7.95745 7.63975 7.91252 7.55265 7.84699C7.46555 7.78147 7.39497 7.6971 7.34638 7.60043C7.29779 7.50377 7.2725 7.3974 7.27246 7.28958V4.32486C7.27241 4.21797 7.29718 4.11247 7.34489 4.01642C7.39259 3.92037 7.46198 3.83629 7.54775 3.77059C7.63352 3.7049 7.73341 3.65932 7.83982 3.63733C7.94622 3.61534 8.05633 3.61753 8.16175 3.64372Z" fill="#7C7F84"/>
</svg>
