<svg width="20" height="21" viewBox="0 0 20 21" fill="none" xmlns="http://www.w3.org/2000/svg">
<path id="Icon" d="M0.875 9.66478C0.875 9.09043 0.875 8.80325 0.949027 8.53878C1.0146 8.30451 1.12237 8.08418 1.26703 7.88859C1.43034 7.66779 1.65702 7.49148 2.11039 7.13886L8.8927 1.86373C9.24402 1.59048 9.41968 1.45385 9.61365 1.40133C9.7848 1.35499 9.9652 1.35499 10.1363 1.40133C10.3303 1.45385 10.506 1.59048 10.8573 1.86373L17.6396 7.13886C18.093 7.49148 18.3197 7.66779 18.483 7.88859C18.6276 8.08418 18.7354 8.30451 18.801 8.53878C18.875 8.80325 18.875 9.09043 18.875 9.66478V16.8997C18.875 18.0198 18.875 18.5799 18.657 19.0077C18.4653 19.384 18.1593 19.69 17.783 19.8817C17.3552 20.0997 16.7951 20.0997 15.675 20.0997H4.075C2.95489 20.0997 2.39484 20.0997 1.96702 19.8817C1.59069 19.69 1.28473 19.384 1.09299 19.0077C0.875 18.5799 0.875 18.0198 0.875 16.8997V9.66478Z" stroke="#D2CECE" stroke-width="1.5" stroke-linecap="round" stroke-linejoin="round"/>
</svg>
