<svg width="10" height="8" viewBox="0 0 10 8" fill="none" xmlns="http://www.w3.org/2000/svg">
<path d="M1.61143 1.88232H0.76335C0.341764 1.88232 0 2.15322 0 2.48738V7.39495C0 7.72912 0.341764 8.00001 0.76335 8.00001H1.61143C2.03302 8.00001 2.37478 7.72912 2.37478 7.39495V2.48738C2.37478 2.15322 2.03302 1.88232 1.61143 1.88232Z" fill="#7C7F84"/>
<path d="M5.17344 0H4.32536C3.90378 0 3.56201 0.270891 3.56201 0.605052V7.39495C3.56201 7.72911 3.90378 8 4.32536 8H5.17344C5.59503 8 5.93679 7.72911 5.93679 7.39495V0.605052C5.93679 0.270891 5.59503 0 5.17344 0Z" fill="#7C7F84"/>
<path d="M6.0016 0.223192L6.82144 0.0489371C7.0169 0.00753845 7.22511 0.0293395 7.4003 0.10955C7.5755 0.189761 7.70336 0.321819 7.75578 0.476709L9.97331 7.03547C9.99929 7.11223 10.0059 7.19229 9.99287 7.27108C9.9798 7.34987 9.94728 7.42585 9.89717 7.49468C9.84705 7.56351 9.78032 7.62383 9.70078 7.67222C9.62125 7.7206 9.53047 7.75609 9.43362 7.77666L8.61455 7.95092C8.51766 7.9715 8.41661 7.97674 8.31716 7.96634C8.21772 7.95595 8.12183 7.93012 8.03499 7.89034C7.94815 7.85055 7.87204 7.79759 7.81104 7.73448C7.75003 7.67138 7.70531 7.59936 7.67944 7.52254L5.46191 0.963776C5.40968 0.808845 5.43719 0.643817 5.53838 0.504951C5.63958 0.366086 5.80619 0.264744 6.0016 0.223192Z" fill="#7C7F84"/>
</svg>
