<svg width="21" height="21" viewBox="0 0 21 21" fill="none" xmlns="http://www.w3.org/2000/svg">
<g id="Icon">
<path d="M10.625 13.7332C7.21112 13.7332 4.17519 15.2638 2.24235 17.6391C1.82636 18.1504 1.61836 18.406 1.62516 18.7514C1.63042 19.0183 1.81091 19.355 2.03707 19.5198C2.32979 19.7332 2.73544 19.7332 3.54674 19.7332H17.7033C18.5146 19.7332 18.9202 19.7332 19.2129 19.5198C19.4391 19.355 19.6196 19.0183 19.6248 18.7514C19.6316 18.406 19.4236 18.1504 19.0076 17.6391C17.0748 15.2638 14.0389 13.7332 10.625 13.7332Z" stroke="#D2CECE" stroke-width="1.5" stroke-linecap="round" stroke-linejoin="round"/>
<path d="M10.625 10.7332C13.3014 10.7332 15.4711 8.71844 15.4711 6.23315C15.4711 3.74787 13.3014 1.73315 10.625 1.73315C7.94858 1.73315 5.77892 3.74787 5.77892 6.23315C5.77892 8.71844 7.94858 10.7332 10.625 10.7332Z" stroke="#D2CECE" stroke-width="1.5" stroke-linecap="round" stroke-linejoin="round"/>
</g>
</svg>
