<svg width="23" height="22" viewBox="0 0 23 22" fill="none" xmlns="http://www.w3.org/2000/svg">
<path d="M11.625 14C8.21112 14 5.17519 15.5306 3.24235 17.906C2.82636 18.4172 2.61836 18.6728 2.62516 19.0183C2.63042 19.2852 2.81091 19.6219 3.03707 19.7867C3.32979 20 3.73544 20 4.54674 20H18.7033C19.5146 20 19.9202 20 20.2129 19.7867C20.4391 19.6219 20.6196 19.2852 20.6248 19.0183C20.6316 18.6728 20.4236 18.4172 20.0076 17.906C18.0748 15.5306 15.0389 14 11.625 14Z" stroke="white" stroke-width="1.5" stroke-linecap="round" stroke-linejoin="round"/>
<path d="M11.625 11C14.3014 11 16.4711 8.98528 16.4711 6.5C16.4711 4.01472 14.3014 2 11.625 2C8.94858 2 6.77892 4.01472 6.77892 6.5C6.77892 8.98528 8.94858 11 11.625 11Z" stroke="white" stroke-width="1.5" stroke-linecap="round" stroke-linejoin="round"/>
</svg>
