<svg width="12" height="12" viewBox="0 0 12 12" fill="none" xmlns="http://www.w3.org/2000/svg">
<g id="Radiogroup &#226;&#134;&#146; Item &#226;&#134;&#146; Radio &#226;&#134;&#146; SVG" clip-path="url(#clip0_410_3622)">
<path id="Vector" fill-rule="evenodd" clip-rule="evenodd" d="M6.36457 10.032C6.25299 9.96987 6.1274 9.93726 5.99969 9.93726C5.87198 9.93726 5.74639 9.96987 5.63482 10.032L3.61206 11.1585C3.489 11.2271 3.34911 11.2596 3.20841 11.2524C3.06772 11.2451 2.9319 11.1984 2.81653 11.1176C2.70116 11.0367 2.6109 10.925 2.55607 10.7952C2.50125 10.6654 2.4841 10.5228 2.50656 10.3837L2.91381 7.87125C2.9323 7.75598 2.92362 7.63798 2.88846 7.52666C2.85331 7.41533 2.79265 7.31375 2.71131 7.23L0.957814 5.41875C0.862119 5.31993 0.795443 5.1967 0.76508 5.06254C0.734718 4.92837 0.741838 4.78844 0.785663 4.65805C0.829488 4.52766 0.908328 4.41183 1.01356 4.32324C1.11879 4.23465 1.24636 4.17671 1.38231 4.15575L3.73431 3.7935C3.85621 3.7747 3.97159 3.72612 4.07023 3.65208C4.16887 3.57803 4.24773 3.4808 4.29981 3.369L5.32056 1.17825C5.38087 1.04878 5.47688 0.939219 5.59732 0.862452C5.71776 0.785685 5.85762 0.744904 6.00044 0.744904C6.14326 0.744904 6.28312 0.785685 6.40356 0.862452C6.524 0.939219 6.62001 1.04878 6.68032 1.17825L7.70182 3.369C7.7539 3.4808 7.83276 3.57803 7.9314 3.65208C8.03004 3.72612 8.14542 3.7747 8.26732 3.7935L10.6193 4.15575C10.7553 4.17671 10.8828 4.23465 10.9881 4.32324C11.0933 4.41183 11.1721 4.52766 11.216 4.65805C11.2598 4.78844 11.2669 4.92837 11.2366 5.06254C11.2062 5.1967 11.1395 5.31993 11.0438 5.41875L9.28882 7.23C9.20751 7.3139 9.14692 7.41564 9.11189 7.5271C9.07687 7.63856 9.06836 7.75667 9.08707 7.872L9.49357 10.3837C9.51593 10.5227 9.49873 10.6652 9.44394 10.7949C9.38914 10.9245 9.29897 11.0361 9.18372 11.117C9.06847 11.1978 8.93281 11.2445 8.79223 11.2519C8.65166 11.2592 8.51186 11.2269 8.38882 11.1585L6.36532 10.032H6.36457Z" fill="#F5F5F5"/>
</g>
<defs>
<clipPath id="clip0_410_3622">
<rect width="12" height="12" fill="white"/>
</clipPath>
</defs>
</svg>
